<?xml version="1.0" encoding="UTF-8"?>
<svg id="_레이어_2" data-name="레이어 2" xmlns="http://www.w3.org/2000/svg" viewBox="0 0 1010.64 138.57">
  <g id="Layer_1" data-name="Layer 1">
    <g>
      <path d="M89.79,1.82c-24.79,0-44.89,20.1-44.89,44.89h44.89v44.89c24.8,0,44.9-20.1,44.9-44.89S114.59,1.82,89.79,1.82Z" fill="#ff9819"></path>
      <path d="M44.9,91.61v-44.89C20.1,46.71,0,66.81,0,91.61s20.1,44.9,44.9,44.9,44.89-20.1,44.89-44.89h-44.89Z" fill="#ff6f1f"></path>
      <path d="M589.17,73.54h-47.8c.41,5.4,2.19,9.69,5.34,12.89,3.15,3.15,7.19,4.72,12.12,4.72,3.84,0,7.01-.9,9.52-2.7,2.39-1.75,5.12-4.94,8.16-9.58.15-.23.45-.3.69-.17l12.12,6.66c.25.14.34.47.19.72-1.93,3.18-3.96,5.92-6.09,8.24-2.23,2.38-4.63,4.36-7.19,5.94-2.56,1.53-5.32,2.65-8.29,3.37-2.97.72-6.19,1.08-9.66,1.08-9.95,0-17.94-3.15-23.97-9.45-6.03-6.34-9.04-14.75-9.04-25.23s2.92-18.8,8.77-25.23c5.89-6.34,13.7-9.51,23.42-9.51s17.57,3.08,23.28,9.24c5.66,6.12,8.49,14.59,8.49,25.43l-.07,3.58ZM573.34,61.13c-2.15-8.1-7.32-12.14-15.54-12.14-1.88,0-3.63.29-5.28.88-1.64.54-3.15,1.35-4.52,2.43-1.32,1.03-2.46,2.29-3.42,3.78-.96,1.48-1.69,3.17-2.19,5.06h30.96Z"></path>
      <path d="M514.44,98.97c0,3.1-.11,5.82-.34,8.16-.18,2.38-.46,4.48-.82,6.27-1.1,4.95-3.24,9.2-6.44,12.75-6.03,6.84-14.31,10.25-24.86,10.25-8.9,0-16.23-2.36-21.99-7.08-5.8-4.75-9.21-11.28-10.21-19.6-.04-.31.2-.58.51-.58h14.47c.25,0,.46.18.51.43.6,3.03,1.55,5.39,2.86,7.06,3.2,4.09,7.85,6.14,13.97,6.14,11.28,0,16.92-6.81,16.92-20.44v-9.17c-6.12,6.16-13.17,9.24-21.16,9.24-9.09,0-16.53-3.24-22.33-9.71-5.84-6.57-8.77-14.77-8.77-24.62s2.72-17.72,8.15-24.42c5.84-7.11,13.56-10.66,23.15-10.66,8.4,0,15.39,3.08,20.96,9.24v-6.9c0-.29.23-.52.52-.52h14.37c.29,0,.52.23.52.52v63.64ZM499.65,67.8c0-6.39-1.73-11.49-5.2-15.31-3.52-3.91-8.01-5.87-13.49-5.87-5.84,0-10.46,2.14-13.83,6.41-3.06,3.82-4.59,8.77-4.59,14.84s1.53,10.88,4.59,14.71c3.33,4.18,7.94,6.27,13.83,6.27s10.55-2.11,13.97-6.34c3.15-3.82,4.73-8.73,4.73-14.71Z"></path>
      <path d="M378.68,37.63c0-.29.23-.52.52-.52h14.44c.29,0,.52.23.52.52v5.55c5.39-5.26,11.46-7.89,18.22-7.89,7.76,0,13.81,2.41,18.15,7.22,3.74,4.09,5.62,10.77,5.62,20.04v39.76c0,.29-.23.52-.52.52h-14.44c-.29,0-.52-.23-.52-.52v-36.18c0-6.48-.91-10.95-2.74-13.43-1.78-2.52-5.02-3.78-9.73-3.78-5.11,0-8.74,1.66-10.89,4.99-2.1,3.28-3.15,9.02-3.15,17.2v31.19c0,.29-.23.52-.52.52h-14.44c-.29,0-.52-.23-.52-.52V37.63Z"></path>
      <path d="M349.37,37.63c0-.29.23-.52.52-.52h14.44c.29,0,.52.23.52.52v64.67c0,.29-.23.52-.52.52h-14.44c-.29,0-.52-.23-.52-.52v-6.36c-6.35,5.85-13.17,8.77-20.48,8.77-9.22,0-16.85-3.28-22.88-9.85-5.98-6.7-8.97-15.07-8.97-25.1s2.99-18.06,8.97-24.62c5.98-6.57,13.47-9.85,22.46-9.85,7.76,0,14.73,3.15,20.89,9.44v-7.1ZM312.8,69.76c0,6.3,1.71,11.42,5.14,15.38,3.52,4,7.94,6,13.29,6,5.71,0,10.32-1.93,13.83-5.8,3.52-4,5.27-9.09,5.27-15.25s-1.76-11.24-5.27-15.25c-3.52-3.91-8.08-5.87-13.7-5.87-5.3,0-9.73,1.98-13.29,5.94-3.52,4-5.27,8.95-5.27,14.84Z"></path>
      <path d="M254.3,37.63c0-.29.23-.52.52-.52h14.37c.29,0,.52.23.52.52v5.35c2.83-2.92,5.34-4.92,7.53-6,2.24-1.12,4.89-1.69,7.94-1.69,3.93,0,8.04,1.22,12.32,3.67.24.14.33.44.2.68l-6.56,12.93c-.14.28-.5.37-.77.2-2.75-1.84-5.44-2.76-8.07-2.76-8.4,0-12.6,6.25-12.6,18.75v33.55c0,.29-.23.52-.52.52h-14.37c-.29,0-.52-.23-.52-.52V37.63Z"></path>
      <path d="M174.43,69.49c0-9.49,3.35-17.56,10.04-24.22,6.7-6.66,14.86-9.98,24.48-9.98s17.87,3.35,24.61,10.05c6.65,6.7,9.98,14.93,9.98,24.69s-3.35,18.1-10.04,24.76c-6.74,6.61-15.01,9.92-24.81,9.92s-17.85-3.37-24.41-10.12c-6.56-6.66-9.84-15.02-9.84-25.1ZM189.73,69.76c0,6.57,1.73,11.76,5.19,15.58,3.55,3.87,8.23,5.8,14.04,5.8s10.53-1.91,14.04-5.73c3.5-3.82,5.25-8.93,5.25-15.31s-1.75-11.49-5.25-15.31c-3.55-3.87-8.23-5.8-14.04-5.8s-10.35,1.93-13.9,5.8c-3.55,3.87-5.32,8.86-5.32,14.98Z"></path>
      <path d="M998.65,51.27v51.02c0,.29-.23.52-.52.52h-14.37c-.29,0-.52-.23-.52-.52v-51.02h-11.25c-.29,0-.52-.23-.52-.52v-13.13c0-.29.23-.52.52-.52h11.25V13.54c0-.29.23-.52.52-.52h14.37c.29,0,.52.23.52.52v23.57h11.47c.29,0,.52.23.52.52v13.13c0,.29-.23.52-.52.52h-11.47Z"></path>
      <path d="M962.17,39.8c.17.09.28.27.28.46v18.42c0,.49-.61.71-.93.34-3.14-3.64-5.98-6.17-8.53-7.61-2.74-1.62-5.96-2.43-9.66-2.43-5.8,0-10.61,2-14.45,6-3.84,4-5.76,9.02-5.76,15.04s1.85,11.22,5.55,15.18c3.75,3.96,8.51,5.94,14.32,5.94,3.69,0,6.96-.79,9.79-2.36,2.51-1.4,5.42-4.01,8.73-7.82.32-.37.93-.14.93.34v18.29c0,.2-.11.37-.29.46-6.16,3.1-12.32,4.65-18.48,4.65-10.32,0-18.95-3.28-25.89-9.85-6.94-6.61-10.41-14.82-10.41-24.62s3.52-18.08,10.55-24.83c7.03-6.75,15.66-10.12,25.89-10.12,6.47,0,12.59,1.5,18.35,4.51Z"></path>
      <path d="M881.22,37.63c0-.29.23-.52.52-.52h14.44c.29,0,.52.23.52.52v64.67c0,.29-.23.52-.52.52h-14.44c-.29,0-.52-.23-.52-.52v-6.36c-6.35,5.85-13.17,8.77-20.48,8.77-9.22,0-16.85-3.28-22.87-9.85-5.98-6.7-8.97-15.07-8.97-25.1s2.99-18.06,8.97-24.62c5.98-6.57,13.47-9.85,22.46-9.85,7.76,0,14.72,3.15,20.89,9.44v-7.1ZM844.64,69.76c0,6.3,1.71,11.42,5.14,15.38,3.51,4,7.94,6,13.28,6,5.71,0,10.32-1.93,13.83-5.8,3.52-4,5.28-9.09,5.28-15.25s-1.76-11.24-5.28-15.25c-3.51-3.91-8.08-5.87-13.69-5.87-5.3,0-9.73,1.98-13.29,5.94-3.52,4-5.27,8.95-5.27,14.84Z"></path>
      <path d="M768.96,138.05c0,.29-.23.52-.52.52h-14.37c-.29,0-.52-.23-.52-.52V37.63c0-.29.23-.52.52-.52h14.37c.29,0,.52.23.52.52v6.63c6.07-5.98,12.97-8.97,20.69-8.97,9.17,0,16.73,3.33,22.67,9.98,6.03,6.61,9.04,14.95,9.04,25.03s-2.99,18.06-8.98,24.62c-5.93,6.52-13.42,9.78-22.46,9.78-7.81,0-14.79-3.08-20.96-9.24v42.59ZM805.6,70.37c0-6.3-1.74-11.42-5.21-15.38-3.51-4-7.94-6-13.28-6-5.66,0-10.25,1.93-13.77,5.8-3.52,3.87-5.27,8.95-5.27,15.25s1.76,11.24,5.27,15.25c3.47,3.91,8.04,5.87,13.7,5.87,5.34,0,9.75-1.98,13.22-5.94,3.56-3.96,5.34-8.91,5.34-14.84Z"></path>
      <path d="M646.43,37.63c0-.29.23-.52.52-.52h14.37c.29,0,.52.23.52.52v5.55c2.97-3.06,5.5-5.13,7.6-6.21,2.24-1.12,5.05-1.69,8.43-1.69,7.53,0,13.49,3.24,17.88,9.71,4.84-6.48,11.39-9.71,19.66-9.71,15.02,0,22.53,8.97,22.53,26.92v40.09c0,.29-.23.52-.52.52h-14.44c-.29,0-.52-.23-.52-.52v-35.98c0-6.3-.77-10.75-2.33-13.36-1.59-2.65-4.22-3.98-7.88-3.98-4.24,0-7.35,1.57-9.31,4.72-1.92,3.15-2.88,8.21-2.88,15.18v33.41c0,.29-.23.52-.52.52h-14.44c-.29,0-.52-.23-.52-.52v-35.78c0-11.69-3.42-17.54-10.28-17.54-4.34,0-7.51,1.6-9.52,4.79-1.96,3.19-2.95,8.23-2.95,15.11v33.41c0,.29-.23.52-.52.52h-14.37c-.29,0-.52-.23-.52-.52V37.63Z"></path>
      <path d="M632,37.11c.29,0,.52.23.52.52v64.67c0,.29-.23.52-.52.52h-14.37c-.29,0-.52-.23-.52-.52V37.62c0-.29.23-.52.52-.52h14.37ZM614.78,9.78c0-2.65.98-4.95,2.95-6.88,1.96-1.93,4.31-2.9,7.05-2.9s5.16.97,7.12,2.9c1.96,1.89,2.95,4.21,2.95,6.95s-.98,5.08-2.95,7.02c-1.92,1.93-4.27,2.9-7.05,2.9s-5.16-.97-7.12-2.9c-1.96-1.93-2.95-4.3-2.95-7.08Z"></path>
    </g>
  </g>
</svg>